<?xml version="1.0" encoding="UTF-8" standalone="no"?>
<!DOCTYPE svg PUBLIC "-//W3C//DTD SVG 1.1//EN" "http://www.w3.org/Graphics/SVG/1.1/DTD/svg11.dtd">
<svg width="100%" height="100%" viewBox="0 0 283 271" version="1.1" xmlns="http://www.w3.org/2000/svg" xmlns:xlink="http://www.w3.org/1999/xlink" xml:space="preserve" xmlns:serif="http://www.serif.com/" style="fill-rule:evenodd;clip-rule:evenodd;stroke-linejoin:round;stroke-miterlimit:2;">
    <g transform="matrix(1.04497,0,0,1.04497,-214.073,-158.233)">
        <path d="M340.1,292.8L339.7,152.3L307.54,250.9L340.1,292.8Z" style="fill:url(#_Linear1);"/>
        <path d="M340.2,152.4L371.65,250.04L340.61,292.74L340.2,152.4Z" style="fill:rgb(210,195,8);"/>
        <path d="M341.1,292.4L474.9,250.01L371.3,250L341.1,292.4Z" style="fill:rgb(250,242,111);"/>
        <path d="M341,293.1L391.85,310.44L474.95,250.12L341,293.1Z" style="fill:rgb(162,153,16);"/>
        <path d="M289.1,310.6L339.42,293.48L205.22,249.98L289.1,310.6Z" style="fill:rgb(210,195,8);"/>
        <path d="M339.6,293.8L256.93,409.9L289.15,310.8L339.6,293.8Z" style="fill:rgb(250,242,111);"/>
        <path d="M341.1,293.6L391.88,310.42L423.6,408.11L341.1,293.6Z" style="fill:url(#_Linear2);"/>
        <path d="M340.2,348.6L423.28,408.25L340.72,293.85L340.2,348.6Z" style="fill:rgb(162,153,16);"/>
        <path d="M306.9,251.2L340.46,293.92L204.86,250.02L306.9,251.2Z" style="fill:rgb(250,242,111);"/>
        <path d="M340.2,348.6L257.3,407.9L340.33,293.4L340.2,348.6Z" style="fill:rgb(162,153,16);"/>
    </g>
    <defs>
        <linearGradient id="_Linear1" x1="0" y1="0" x2="1" y2="0" gradientUnits="userSpaceOnUse" gradientTransform="matrix(-16.1,-89,89,-16.1,338.9,292.1)"><stop offset="0" style="stop-color:rgb(230,216,47);stop-opacity:1"/><stop offset="1" style="stop-color:rgb(250,242,111);stop-opacity:1"/></linearGradient>
        <linearGradient id="_Linear2" x1="0" y1="0" x2="1" y2="0" gradientUnits="userSpaceOnUse" gradientTransform="matrix(-50.7,6.20896e-15,-6.20896e-15,-50.7,391.9,310.6)"><stop offset="0" style="stop-color:rgb(210,195,8);stop-opacity:1"/><stop offset="1" style="stop-color:rgb(232,218,52);stop-opacity:1"/></linearGradient>
    </defs>
</svg>
