<?xml version="1.0" encoding="UTF-8" standalone="no"?>
<!DOCTYPE svg PUBLIC "-//W3C//DTD SVG 1.1//EN" "http://www.w3.org/Graphics/SVG/1.1/DTD/svg11.dtd">
<svg width="100%" height="100%" viewBox="0 0 1080 1080" version="1.1" xmlns="http://www.w3.org/2000/svg" xmlns:xlink="http://www.w3.org/1999/xlink" xml:space="preserve" xmlns:serif="http://www.serif.com/" style="fill-rule:evenodd;clip-rule:evenodd;stroke-linejoin:round;stroke-miterlimit:2;">
    <g transform="matrix(0.675652,0,0,0.675652,209.087,144.051)">
        <path d="M507.456,570.565L-42.733,115.471L-25.752,15.282L507.456,570.565L-24.054,-33.963L54.06,-47.548L507.456,570.565L121.984,-69.623L215.38,-84.906L507.456,570.565L301.984,-93.397L378.399,-88.303L507.456,570.565L431.041,-86.605L524.437,-78.114L507.456,570.565L561.795,-76.416L605.946,-66.227L507.456,570.565L641.607,-44.152L701.041,-30.567L507.456,570.565L751.984,-37.359L797.833,-10.19L507.456,570.565L862.361,-27.171L938.777,-25.473L507.456,570.565L1003.31,-40.756L1081.42,-39.057L507.456,570.565L1110.29,1.697L1132.36,88.301L507.456,570.565L1137.46,152.829L1145.95,237.735L507.456,570.565L1144.25,310.754L1152.74,407.546L507.456,570.565L1157.83,461.886L1142.55,565.471L507.456,570.565L1142.55,638.49L1140.85,719.999L507.456,570.565L1145.95,767.546L1149.34,830.377L507.456,570.565L1152.74,889.811L1157.83,959.433C1157.83,959.433 598.044,624.729 517.151,576.362C516.958,576.247 516.707,576.305 516.585,576.494C516.462,576.682 516.511,576.935 516.695,577.064C595.681,632.624 1154.44,1025.66 1154.44,1025.66L1110.29,1076.6L507.456,570.565L1049,1110L962.55,1110L507.456,570.565L891.229,1115.66L743.493,1113.96L507.456,570.565L673.871,1166.63L595.758,1110L507.456,570.565L548.21,1112.26L470.097,1117.36L507.456,570.565L400.475,1108.87L329.154,1110L507.456,570.565L274.814,1110L198.399,1110L507.456,570.565L130.475,1110L48.965,1110L507.456,570.565L-54.62,1110L-59.714,1012.08L507.456,570.565L-54.62,906.792L-42.733,786.226L507.456,570.565L-51.224,714.905L-47.827,636.792L507.456,570.565L-51.224,558.678L-52.922,483.961L507.456,570.565L-59.714,410.943L-52.922,331.131L507.456,570.565L-51.224,256.414L-42.733,188.49L507.456,570.565Z" style="fill:url(#_Radial1);"/>
    </g>
    <defs>
        <radialGradient id="_Radial1" cx="0" cy="0" r="1" gradientUnits="userSpaceOnUse" gradientTransform="matrix(705.743,0,0,705.743,509,570)"><stop offset="0" style="stop-color:rgb(236,235,235);stop-opacity:0.31"/><stop offset="0.46" style="stop-color:rgb(226,225,225);stop-opacity:0.25"/><stop offset="0.63" style="stop-color:rgb(204,204,204);stop-opacity:0.13"/><stop offset="0.79" style="stop-color:rgb(183,183,183);stop-opacity:0"/><stop offset="1" style="stop-color:rgb(179,179,179);stop-opacity:0"/></radialGradient>
    </defs>
</svg>
